<?xml version="1.0" encoding="UTF-8" standalone="no"?>
<!-- Created with Inkscape (http://www.inkscape.org/) -->

<svg
   xmlns:dc="http://purl.org/dc/elements/1.1/"
   xmlns:cc="http://creativecommons.org/ns#"
   xmlns:rdf="http://www.w3.org/1999/02/22-rdf-syntax-ns#"
   xmlns:svg="http://www.w3.org/2000/svg"
   xmlns="http://www.w3.org/2000/svg"
   xmlns:sodipodi="http://sodipodi.sourceforge.net/DTD/sodipodi-0.dtd"
   xmlns:inkscape="http://www.inkscape.org/namespaces/inkscape"
   width="26.487295mm"
   height="21.740568mm"
   viewBox="0 0 93.852621 77.033509"
   id="svg2"
   version="1.1"
   inkscape:version="0.91 r13725"
   sodipodi:docname="logoRN.svg">
  <defs
     id="defs4">
    <pattern
       y="0"
       x="0"
       height="6"
       width="6"
       patternUnits="userSpaceOnUse"
       id="EMFhbasepattern" />
  </defs>
  <sodipodi:namedview
     id="base"
     pagecolor="#ffffff"
     bordercolor="#666666"
     borderopacity="1.0"
     inkscape:pageopacity="0.0"
     inkscape:pageshadow="2"
     inkscape:zoom="1.979899"
     inkscape:cx="16.422178"
     inkscape:cy="-34.108328"
     inkscape:document-units="px"
     inkscape:current-layer="layer1"
     showgrid="false"
     fit-margin-top="0"
     fit-margin-left="0"
     fit-margin-right="0"
     fit-margin-bottom="0"
     inkscape:window-width="1280"
     inkscape:window-height="961"
     inkscape:window-x="-8"
     inkscape:window-y="-8"
     inkscape:window-maximized="1" />
  <metadata
     id="metadata7">
    <rdf:RDF>
      <cc:Work
         rdf:about="">
        <dc:format>image/svg+xml</dc:format>
        <dc:type
           rdf:resource="http://purl.org/dc/dcmitype/StillImage" />
        <dc:title></dc:title>
      </cc:Work>
    </rdf:RDF>
  </metadata>
  <g
     inkscape:label="Capa 1"
     inkscape:groupmode="layer"
     id="layer1"
     transform="translate(-25.903651,-27.965)">
    <path
       inkscape:connector-curvature="0"
       id="path4141"
       d="m 48.301478,50.09689 c -0.246505,0 -0.475431,0 -0.704306,-0.01826 l -0.01754,0 c -2.711702,0 -5.018386,-0.07285 -7.043361,-0.23676 -0.598682,-0.05459 -1.056483,-0.564676 -1.056483,-1.165793 l 0,-5.956511 c 0,-0.601117 0.475429,-1.12937 1.056483,-1.183978 2.007307,-0.163949 4.331572,-0.236813 7.043273,-0.236813 l 0.01754,0 c 0.228876,0 0.457801,0 0.704307,0 7.765294,0 8.821779,0.874336 8.857037,4.389954 -0.03526,3.515565 -1.091743,4.40814 -8.857037,4.40814 z m 16.921626,10.255345 c 3.574516,-2.222282 5.28252,-5.883629 5.634697,-12.186205 0.05284,-0.728608 0.07041,-1.511859 0.07041,-2.313366 0,-0.03651 0,-0.05459 0,-0.07285 l 0,-0.163949 0,-0.145693 c 0,-0.03651 0,-0.05459 0,-0.07285 -0.03521,-7.195151 -1.479075,-11.348292 -4.824666,-13.898472 -2.447566,-1.857978 -5.916411,-2.914483 -11.357391,-3.315228 -0.05284,-0.01826 -0.08804,-0.01826 -0.140878,-0.01826 C 52.774023,28.037936 50.713841,27.965 48.389526,27.965 l -0.228876,0 c 0,0 -0.01754,0 -0.01754,0 -8.117474,0 -14.791028,0.309678 -20.425706,0.947218 -1.038987,0.127437 -1.813753,1.020065 -1.813753,2.094791 l 0,30.019225 c 0,0.01826 0,0.03651 0,0.05459 l 0,17.031548 c 0,0.637272 0.510643,1.165632 1.144543,1.165632 l 11.286975,0 c 0.616263,0 1.1269,-0.52836 1.1269,-1.165632 l 0,-14.736438 c 0,-0.309642 0.246556,-0.528199 0.545898,-0.510015 0.563473,0.07285 1.214942,0.127616 1.743209,0.182134 1.919301,0.145693 4.120364,0.218629 6.638346,0.218629 1.144529,0 2.218641,0 3.22234,-0.03651 0.211297,-0.01826 0.405015,0.127437 0.493059,0.327881 0,0 4.419653,11.585052 5.705064,14.973287 0.176084,0.455121 0.598683,0.746578 1.056534,0.746578 l 11.920868,0 c 0.809979,0 1.355824,-0.819317 1.056483,-1.584598 -1.884091,-4.954649 -6.620766,-17.341244 -6.620766,-17.341244 z"
       style="fill:#026853;fill-opacity:1;fill-rule:nonzero;stroke:none" />
    <path
       inkscape:connector-curvature="0"
       id="path4143"
       d="m 118.75257,37.200316 c -0.7572,-2.422725 -1.97204,-4.262465 -3.73293,-5.62863 C 111.74436,29.021506 106.58494,27.965 97.234946,27.965 l 0,0 0,0 c -9.349996,0 -14.491737,1.056506 -17.766509,3.606686 -1.760892,1.366165 -2.975734,3.205905 -3.733129,5.62863 -0.686727,2.222281 -1.003646,4.936392 -1.003646,8.579519 l 0,32.332591 c 0,0.63729 0.510637,1.16565 1.126898,1.16565 l 11.286875,0 c 0.633941,0 1.144631,-0.52836 1.144631,-1.16565 l 0,-32.332591 c 0,-3.734194 1.056736,-4.681412 8.94488,-4.681412 7.906324,0 8.963064,0.947218 8.963064,4.681412 l 0,32.332591 c 0,0.63729 0.51019,1.16565 1.12695,1.16565 l 11.28668,0 c 0.63394,0 1.14463,-0.52836 1.14463,-1.16565 l 0,-32.332591 c 0,-3.643127 -0.31723,-6.357238 -1.0037,-8.579519 z"
       style="fill:#026853;fill-opacity:1;fill-rule:nonzero;stroke:none" />
    <path
       inkscape:connector-curvature="0"
       id="path4145"
       d="m 41.592716,95.963595 -2.518032,0 c -0.158454,0 -0.281714,0.10918 -0.281714,0.27329 l 0,8.324575 c 0,0.14551 0.123249,0.27327 0.281714,0.27327 l 2.518032,0 c 0.158455,0 0.281714,-0.12779 0.281714,-0.27327 l 0,-8.324575 c 0,-0.164128 -0.123248,-0.27329 -0.281714,-0.27329 z"
       style="fill:#0a6f57;fill-opacity:1;fill-rule:nonzero;stroke:none" />
    <path
       inkscape:connector-curvature="0"
       id="path4147"
       d="m 51.611862,100.44463 c 0,1.23859 -0.387386,1.62147 -2.711702,1.62147 -2.165805,0 -2.517983,-0.38288 -2.517983,-1.62147 l 0,-3.970842 c 0,-1.220401 0.352178,-1.603284 2.606028,-1.603284 2.253899,0 2.623657,0.382883 2.623657,1.603284 z m -2.623657,-8.506418 c -4.525327,0 -5.687485,0.928926 -5.687485,4.535576 l 0,3.970842 c 0,3.60664 1.144528,4.55376 5.59944,4.55376 4.595795,0 5.793159,-0.94712 5.793159,-4.55376 l 0,-3.970842 c 0,-3.60665 -1.179736,-4.535576 -5.705114,-4.535576 z"
       style="fill:#0a6f57;fill-opacity:1;fill-rule:nonzero;stroke:none" />
    <path
       inkscape:connector-curvature="0"
       id="path4149"
       d="m 80.894424,92.08369 -4.278469,0 c -3.627555,0 -4.578365,0.928926 -4.578365,4.535576 l 0,3.679894 c 0,3.58844 0.95081,4.53557 4.578365,4.53557 l 4.278469,0 c 0.158616,0 0.281864,-0.14605 0.281864,-0.29146 l 0,-2.34987 c 0,-0.16413 -0.123248,-0.29146 -0.281864,-0.29146 l -4.278469,0 c -1.232824,0 -1.496908,-0.29146 -1.496908,-1.60278 l 0,-0.674361 c 0,-0.01826 0.01754,-0.01826 0.03521,-0.01826 l 5.511346,0 c 0.158615,0 0.281864,-0.127257 0.281864,-0.291457 l 0,-2.094791 c 0,-0.145514 -0.123249,-0.273273 -0.281864,-0.273273 l -5.511346,0 c -0.01772,0 -0.03521,-0.01826 -0.03521,-0.03633 l 0,-0.291458 c 0,-1.32951 0.264084,-1.602782 1.496908,-1.602782 l 4.278469,0 c 0.158616,0 0.281864,-0.127258 0.281864,-0.291457 l 0,-2.349879 c 0,-0.163592 -0.123248,-0.291458 -0.281864,-0.291458 z"
       style="fill:#0a6f57;fill-opacity:1;fill-rule:nonzero;stroke:none" />
    <path
       inkscape:connector-curvature="0"
       id="path4151"
       d="m 93.730845,97.730559 -5.423099,0 c -0.158616,0 -0.281864,0.127257 -0.281864,0.291457 l 0,2.094794 c 0,0.14551 0.123248,0.27327 0.281864,0.27327 l 2.623656,0 0,0.0546 c 0,1.23859 -0.387436,1.62147 -2.71155,1.62147 -2.183687,0 -2.518084,-0.38288 -2.518084,-1.62147 l 0,-3.970846 c 0,-1.220402 0.352077,-1.603284 2.605978,-1.603284 2.20086,0 2.570618,0.364698 2.605976,1.457305 0.01772,0.14605 0.140932,0.273272 0.281864,0.273272 l 2.535259,0 c 0.07072,0 0.140932,-0.03633 0.19397,-0.07267 0.05253,-0.05459 0.0879,-0.146051 0.0879,-0.218719 -0.03537,-3.478855 -1.214844,-4.371412 -5.704963,-4.371412 -4.525479,0 -5.704963,0.928927 -5.704963,4.535576 l 0,3.970848 c 0,3.60663 1.161804,4.55376 5.617069,4.55376 4.595693,0 5.792857,-0.94713 5.792857,-4.55376 l 0,-2.422619 c 0,-0.164129 -0.123248,-0.291458 -0.281863,-0.291458 z"
       style="fill:#0a6f57;fill-opacity:1;fill-rule:nonzero;stroke:none" />
    <path
       inkscape:connector-curvature="0"
       id="path4153"
       d="m 116.55171,100.44463 c 0,1.23859 -0.36976,1.62147 -2.69438,1.62147 -2.18318,0 -2.53526,-0.38288 -2.53526,-1.62147 l 0,-3.970842 c 0,-1.220401 0.36976,-1.603284 2.60598,-1.603284 2.27107,0 2.62366,0.382883 2.62366,1.603284 z m -2.62366,-8.506418 c -4.5078,0 -5.68779,0.928926 -5.68779,4.535576 l 0,3.970842 c 0,3.60664 1.16231,4.55376 5.61707,4.55376 4.59569,0 5.77568,-0.94712 5.77568,-4.55376 l 0,-3.970842 c 0,-3.60665 -1.16231,-4.535576 -5.70496,-4.535576 z"
       style="fill:#0a6f57;fill-opacity:1;fill-rule:nonzero;stroke:none" />
    <path
       inkscape:connector-curvature="0"
       id="path4155"
       d="m 31.732031,97.712374 c -0.07047,0 -0.123248,0 -0.193718,0 -0.80997,0 -1.514305,-0.01826 -2.148205,-0.09092 -0.140861,0 -0.264128,-0.127794 -0.264128,-0.291457 l 0,-1.020369 c 0,-0.01826 0,-0.01826 0,-0.03633 0,0 0,0 0,-0.01826 l 0,-1.019868 c 0,-0.164128 0.123266,-0.291457 0.264128,-0.291457 0.6339,-0.07321 1.338235,-0.09146 2.148205,-0.09146 l 0,0 c 0.07047,0 0.123248,0 0.193718,0 1.972137,0 2.588398,0.200534 2.606028,1.420935 -0.01772,1.238586 -0.633891,1.43912 -2.606028,1.43912 z m 4.120364,2.313506 c 1.162158,-0.619298 1.549493,-1.748776 1.567121,-3.698071 l 0,0 c 0,-0.01826 0,-0.03633 0,-0.05459 0,0 0,-0.01826 0,-0.03633 l 0,0 c -0.01772,-3.424301 -1.214994,-4.316858 -5.687485,-4.316858 -0.01772,0 -0.05284,0 -0.07047,0 l 0,0 c -2.042551,0 -3.820996,0.07267 -5.35292,0.254587 -0.14086,0 -0.24652,0.127794 -0.24652,0.291457 l 0,7.851265 0,0 0,4.22593 c 0,0.1636 0.123266,0.29146 0.281731,0.29146 l 2.517999,0 c 0.14086,0 0.264125,-0.12779 0.264125,-0.29146 l 0,-3.71625 c 0,-0.18185 0.158472,-0.32783 0.334558,-0.29146 0.633905,0.0732 1.391048,0.10954 2.271493,0.10954 0.387387,0 0.757143,0 1.109322,-0.0183 l 1.514336,3.97085 c 0.05278,0.12725 0.193668,0.2369 0.334548,0.2369 l 2.676443,0 c 0.07047,0 0.123249,-0.0183 0.158509,-0.0727 0.05278,-0.0369 0.07041,-0.0915 0.07041,-0.16413 0,-0.0363 -0.01772,-0.0727 -0.01772,-0.0909 z"
       style="fill:#0a6f57;fill-opacity:1;fill-rule:nonzero;stroke:none" />
    <path
       inkscape:connector-curvature="0"
       id="path4157"
       d="m 101.12648,97.712374 c -0.0702,0 -0.12324,0 -0.19346,0 -0.81023,0 -1.514387,-0.01826 -2.148328,-0.09092 -0.140932,-0.01826 -0.264184,-0.14605 -0.264184,-0.291457 l 0,-1.020369 c 0,-0.01826 0,-0.01826 0,-0.03633 0,0 0,-0.01826 0,-0.01826 l 0,-1.019868 c 0,-0.164128 0.123249,-0.291457 0.264184,-0.309642 0.633941,-0.05513 1.338098,-0.09146 2.148328,-0.09146 0.0702,0 0.12325,0 0.19346,0 1.97204,0 2.5883,0.200534 2.60598,1.43912 -0.0177,1.238586 -0.63394,1.43912 -2.60598,1.43912 z m 4.12037,2.295326 c 1.16231,-0.601118 1.54974,-1.730596 1.56742,-3.679891 l 0,0 c 0,-0.01826 0,-0.03633 0,-0.05459 0,0 0,-0.01826 0,-0.03633 l 0,0 c -0.0177,-3.424301 -1.21534,-4.316858 -5.68779,-4.316858 -0.0177,0 -0.0525,0 -0.0702,0 l 0,0 c -2.042754,0 -3.803645,0.07267 -5.335207,0.236402 -0.158615,0.01826 -0.264183,0.146051 -0.264183,0.309642 l 0,7.833085 0,0 0,4.24411 c 0,0.14552 0.123248,0.27328 0.281359,0.27328 l 2.518082,0 c 0.140932,0 0.264186,-0.1278 0.264186,-0.27328 l 0,-3.71625 c 0,-0.18185 0.158615,-0.32783 0.334397,-0.30965 0.633941,0.0915 1.391136,0.1278 2.271576,0.1278 0.38744,0 0.7572,-0.0183 1.10927,-0.0183 l 1.51439,3.95266 c 0.053,0.14552 0.19397,0.25509 0.3344,0.25509 l 2.67669,0 c 0.0702,0 0.12325,-0.0363 0.15862,-0.0727 0.0525,-0.0551 0.0702,-0.10954 0.0702,-0.16413 0,-0.0363 -0.0177,-0.0727 -0.0177,-0.10918 z"
       style="fill:#0a6f57;fill-opacity:1;fill-rule:nonzero;stroke:none" />
    <path
       inkscape:connector-curvature="0"
       id="path4159"
       d="m 64.888554,91.883139 c -0.01754,0 -0.03521,0 -0.05278,0 l -0.05284,0 -0.03521,0 c -0.01754,0 -0.05284,0 -0.07047,0 -4.525328,0 -5.705114,0.910759 -5.705114,4.426485 l 0,8.251836 c 0,0.14551 0.123248,0.27327 0.281763,0.27327 l 2.517983,0 c 0.158454,0 0.281711,-0.12779 0.281711,-0.27327 l 0,-8.251836 c 0,-1.274956 0.616313,-1.493674 2.623657,-1.493674 0.03521,0 0.07047,0 0.105672,0 l 0,0 0.01754,0 c 0.03526,0 0.05284,0 0.08804,0 2.007345,0 2.623656,0.218718 2.623656,1.493674 l 0,8.251836 c 0,0.14551 0.123249,0.27327 0.281764,0.27327 l 2.53556,0 c 0.140879,0 0.264134,-0.12779 0.264134,-0.27327 l 0,-8.251836 c 0,-3.515726 -1.162156,-4.426485 -5.705114,-4.426485 z"
       style="fill:#0a6f57;fill-opacity:1;fill-rule:nonzero;stroke:none" />
    <path
       inkscape:connector-curvature="0"
       id="path4161"
       d="m 41.53988,92.065505 -2.39473,0 c -0.193718,0 -0.33455,0.164129 -0.33455,0.346012 l 0,2.677706 c 0,0.164128 0.123249,0.255087 0.281712,0.200533 l 2.500404,-1.748762 c 0.140825,-0.10918 0.281714,-0.23692 0.281714,-0.455639 l 0,-0.673838 c 0,-0.181848 -0.158455,-0.346012 -0.33455,-0.346012 z"
       style="fill:#0a6f57;fill-opacity:1;fill-rule:nonzero;stroke:none" />
  </g>
</svg>
